<svg data-v-0dd9719b="" version="1.0" xmlns="http://www.w3.org/2000/svg" xmlns:xlink="http://www.w3.org/1999/xlink" width="100%" height="100%" viewBox="0 0 340.000000 250.000000" preserveAspectRatio="xMidYMid meet" color-interpolation-filters="sRGB" style="margin: auto;"> <rect data-v-0dd9719b="" x="0" y="0" width="100%" height="100%" fill="#fff" fill-opacity="1" class="background"></rect> <rect data-v-0dd9719b="" x="0" y="0" width="100%" height="100%" fill="url(#watermark)" fill-opacity="1" class="watermarklayer"></rect> <g data-v-0dd9719b="" fill="#333" class="icon-text-wrapper icon-svg-group iconsvg" transform="translate(48.415000915527344,92.12940979003906)"><g class="iconsvg-imagesvg" transform="translate(0,0)"><g><rect fill="#333" fill-opacity="0" stroke-width="2" x="0" y="0" width="60" height="65.74117698620532" class="image-rect"></rect> <svg x="0" y="0" width="60" height="65.74117698620532" filtersec="colorsb4329747819" class="image-svg-svg primary" style="overflow: visible;"><svg xmlns="http://www.w3.org/2000/svg" viewBox="0.0018437110120430589 0 91.22099304199219 99.94999694824219"><path d="M71.1 48.23c0-1.43 0-2.84-.1-4.23 0-1.09-.13-2.16-.22-3.23-.18-2.27-.41-4.49-.75-6.64-.17-1.11-.38-2.19-.6-3.27a72.55 72.55 0 0 0-2.27-8.67c-.25-.75-.51-1.48-.78-2.2-.59-1.56-1.22-3-1.9-4.44-.35-.71-.69-1.42-1.06-2.1C58.85 5.1 52.61 0 45.61 0c-11 0-20.2 12.65-23.81 30.86 1.78-1.36 3.62-2.69 5.58-4C31 13.64 37.91 4.48 45.61 4.48c4.84 0 9.35 3.63 12.94 9.6.4.65.77 1.34 1.14 2a47 47 0 0 1 2 4.27c.28.69.53 1.41.78 2.13.5 1.4 1 2.85 1.39 4.36q.43 1.61.81 3.27c.46 2.06.85 4.2 1.15 6.41.15 1 .29 2.06.39 3.13a84.71 84.71 0 0 1 .43 8.53 77.59 77.59 0 0 1-4.17 25.7c-.25.72-.51 1.44-.78 2.13-.62 1.53-1.29 2.94-2 4.29-.36.69-.73 1.36-1.11 2-2.44 4.05-5.3 7-8.39 8.49a5.68 5.68 0 0 0-4.57-2.41 5.79 5.79 0 0 0 0 11.57 5.71 5.71 0 0 0 5.57-4.69C55.9 93.38 60.1 89.07 63.41 83c.37-.67.72-1.38 1.06-2.09q1-2.11 1.91-4.45c.27-.72.53-1.45.78-2.2a83.14 83.14 0 0 0 3.94-26.03z" fill="#1d3bd4"></path><path d="M36.26 74.69C23 78.14 11.58 76.77 7.72 70.1c-2.42-4.19-1.52-9.91 1.85-16 .37-.66.78-1.33 1.21-2a46.78 46.78 0 0 1 2.7-3.86c.46-.58 1-1.17 1.46-1.75 1-1.13 2-2.26 3.08-3.38.78-.78 1.59-1.56 2.43-2.33 1.55-1.43 3.2-2.84 5-4.21.83-.64 1.65-1.28 2.52-1.9C30.19 33 32.59 31.48 35.1 30a77.72 77.72 0 0 1 24.34-9.24 43 43 0 0 0-2-4.24 82.63 82.63 0 0 0-24.52 9.6c-1.24.72-2.43 1.46-3.61 2.21-.92.59-1.81 1.19-2.69 1.8-1.87 1.29-3.68 2.61-5.37 4-.88.71-1.71 1.43-2.53 2.15a71.93 71.93 0 0 0-6.38 6.31c-.53.59-1 1.18-1.52 1.77Q9.2 46.3 7.88 48.23c-.44.65-.88 1.31-1.28 2-5 8.13-6.25 16.09-2.75 22.15 3.37 5.84 10.48 8.73 19.51 8.73a60.61 60.61 0 0 0 19.11-3.53c-2.06-.9-4.13-1.84-6.21-2.89zM6.6 46.26c.91-1.3 1.89-2.6 3-3.9-2.26-4.1-3.38-8-3.15-11.43a5.76 5.76 0 0 0 2.23-10.71 5.87 5.87 0 0 0-2.89-.77 5.81 5.81 0 0 0-5 2.89 5.72 5.72 0 0 0-.59 4.39 5.64 5.64 0 0 0 1.86 2.78C1.37 34.57 3 40.36 6.6 46.26zM72.56 36.28c.29 2.23.52 4.49.65 6.82 9.64 9.8 14.14 20.34 10.3 27-2.42 4.19-7.83 6.28-14.8 6.41q-.87 2.35-1.88 4.51h1c9 0 16.14-2.89 19.51-8.73 5.56-9.51-.82-23.77-14.78-36.01z" fill="#1d3bd4"></path><path d="M45.61 71.56c-1-.4-1.93-.79-2.91-1.23a86.795 86.795 0 0 1-7.6-3.9A77.78 77.78 0 0 1 14.93 50a44 44 0 0 0-2.64 3.9 82.87 82.87 0 0 0 20.58 16.4c1.24.72 2.48 1.38 3.72 2 1 .51 1.94 1 2.9 1.43q3.09 1.47 6.12 2.66c1.06.4 2.1.77 3.15 1.13a71.29 71.29 0 0 0 8.64 2.38 42.75 42.75 0 0 0 2-4.23c-1.46-.27-2.95-.59-4.47-1-1.07-.28-2.15-.6-3.24-.93-1.97-.61-4.02-1.34-6.08-2.18zM90.45 22.34a5.81 5.81 0 0 0-5-2.89 5.63 5.63 0 0 0-1.9.37c-4-3.09-9.84-4.56-16.71-4.4.68 1.45 1.31 3 1.89 4.53 4.71.09 8.68 1.09 11.52 3a5.72 5.72 0 0 0 .2 5.17 5.81 5.81 0 0 0 5 2.89 5.79 5.79 0 0 0 5-8.68z" fill="#1d3bd4"></path><circle cx="45.61" cy="48.81" r="11.16" fill="#f39a2c"></circle></svg></svg> <!----></g></g> <g transform="translate(67,8.589340209960938)"><g data-gra="path-name" fill-rule="" class="tp-name iconsvg-namesvg" transform="translate(0,0)"><g transform="scale(1)"><g><path d="M31.78-23.52L31.78-23.52 19.83-23.52Q19.72-22.61 19.37-20.81L19.37-20.81 30.09-20.81Q31.15-20.81 31.8-20.16 32.45-19.51 32.45-18.46L32.45-18.46 32.45-1.27Q32.45 0.28 32.01 1.13 31.57 1.97 30.48 2.43L30.48 2.43Q29.21 2.92 26.23 2.99L26.23 2.99Q24.08 3.06 23.55 1.58L23.55 1.58Q23.13 0.42 23.78-0.07 24.43-0.56 25.88-0.49L25.88-0.49Q26.23-0.49 26.68-0.51 27.14-0.53 27.21-0.53L27.21-0.53Q28.05-0.53 28.05-1.3L28.05-1.3 28.05-16.03Q28.05-16.88 27.18-16.88L27.18-16.88 21.23-16.88 23.13-16.49Q24.79-16.14 24.19-14.55L24.19-14.55Q23.73-13.25 23.34-12.38L23.34-12.38 24.26-12.38Q25.91-12.38 25.91-10.72 25.91-9.07 24.26-9.07L24.26-9.07 19.86-9.07 19.86-6.71 25-6.71Q26.72-6.71 26.72-4.99 26.72-3.27 25-3.27L25-3.27 19.86-3.27 19.86 0.07Q19.86 2.04 17.89 2.04 15.93 2.04 15.93 0.07L15.93 0.07 15.93-3.27 11-3.27Q9.28-3.27 9.28-4.99 9.28-6.71 11-6.71L11-6.71 15.93-6.71 15.93-9.07 11.71-9.07Q10.05-9.07 10.05-10.72 10.05-12.38 11.71-12.38L11.71-12.38 12.8-12.38Q12.52-13.39 12.02-14.59L12.02-14.59Q11.46-16.03 12.94-16.38L12.94-16.38Q13.78-16.66 14.5-16.24 15.22-15.82 15.54-14.94L15.54-14.94Q15.93-14.06 15.68-13.36 15.43-12.66 14.55-12.41L14.55-12.41 14.48-12.38 19.69-12.38Q20.67-15.15 21.02-16.88L21.02-16.88 8.75-16.88Q7.88-16.88 7.88-16.03L7.88-16.03 7.88 0.91Q7.88 3.02 5.77 3.02L5.77 3.02Q3.59 3.02 3.59 0.91L3.59 0.91 3.59-18.46Q3.59-19.51 4.24-20.16 4.89-20.81 5.94-20.81L5.94-20.81 15.15-20.81Q15.43-22.64 15.54-23.52L15.54-23.52 4.22-23.52Q2.21-23.52 2.21-25.52L2.21-25.52Q2.21-27.49 4.22-27.49L4.22-27.49 16-27.49Q16-27.6 16.01-27.83 16.03-28.05 16.03-28.16L16.03-28.16Q16.17-30.52 18.49-30.3L18.49-30.3Q20.85-30.09 20.53-27.7L20.53-27.7Q20.53-27.67 20.51-27.6 20.5-27.53 20.5-27.49L20.5-27.49 31.78-27.49Q33.79-27.49 33.79-25.52L33.79-25.52Q33.79-23.52 31.78-23.52ZM67.68-22.96L67.68-22.96 40.29-22.96Q38.29-22.96 38.29-25.03L38.29-25.03Q38.29-27.04 40.29-27.04L40.29-27.04 51.64-27.04 51.64-28.27Q51.64-30.48 53.89-30.48L53.89-30.48Q56.11-30.48 56.11-28.27L56.11-28.27 56.11-27.04 67.68-27.04Q69.68-27.04 69.68-25.03L69.68-25.03Q69.68-22.96 67.68-22.96ZM46.23-4.04L46.23-4.04Q44.26-1.34 42.08 0.67L42.08 0.67Q40.75 1.79 39.34 0.84L39.34 0.84Q37.3-0.63 39.27-2.36L39.27-2.36Q41.06-4.08 42.33-5.94L42.33-5.94Q43.28-7.59 45.21-6.96L45.21-6.96Q47.67-6.19 46.23-4.04ZM60.54-16.77L60.54-16.77 47.46-16.77Q46.58-16.77 46.58-15.93L46.58-15.93 46.58-13.5Q46.58-12.62 47.46-12.62L47.46-12.62 60.54-12.62Q61.42-12.62 61.42-13.5L61.42-13.5 61.42-15.93Q61.42-16.77 60.54-16.77ZM44.68-20.46L44.68-20.46 63.56-20.46Q64.62-20.46 65.27-19.81 65.92-19.16 65.92-18.11L65.92-18.11 65.92-11.32Q65.92-10.27 65.27-9.62 64.62-8.96 63.56-8.96L63.56-8.96 56.11-8.96 56.11-1.37Q56.11 0.32 55.71 1.2 55.3 2.07 54.18 2.5L54.18 2.5Q52.73 3.02 49.96 3.09L49.96 3.09Q47.64 3.16 47.11 1.48L47.11 1.48Q46.69 0.21 47.41-0.37 48.13-0.95 49.64-0.91L49.64-0.91 50.94-0.91Q51.43-0.95 51.57-1.05 51.71-1.16 51.71-1.51L51.71-1.51 51.71-8.96 44.68-8.96Q43.63-8.96 42.98-9.62 42.33-10.27 42.33-11.32L42.33-11.32 42.33-18.11Q42.33-19.16 42.98-19.81 43.63-20.46 44.68-20.46ZM65.11 0.46L65.11 0.46Q63.14-2.07 61.73-3.83L61.73-3.83Q60.01-5.66 62.37-6.82L62.37-6.82Q63.88-7.56 65.04-6.36L65.04-6.36Q67.36-3.94 69.12-1.69L69.12-1.69Q69.79-0.67 69.54-0.05 69.29 0.56 68.17 1.16L68.17 1.16Q67.18 1.69 66.45 1.53 65.71 1.37 65.11 0.46ZM104.03-24.54L104.03-24.54 97.98-24.54 97.98-24.47Q97.98-22.39 95.91-22.39L95.91-22.39Q93.8-22.39 93.8-24.47L93.8-24.47 93.8-24.54 86.13-24.54 86.13-24.47Q86.13-22.39 84.06-22.39 81.98-22.39 81.98-24.47L81.98-24.47 81.98-24.54 76.01-24.54Q74.11-24.54 74.11-26.44L74.11-26.44Q74.11-28.3 76.01-28.3L76.01-28.3 81.98-28.3 81.98-28.37Q81.98-30.45 84.06-30.45 86.13-30.45 86.13-28.37L86.13-28.37 86.13-28.3 93.8-28.3 93.8-28.37Q93.8-30.45 95.91-30.45L95.91-30.45Q97.98-30.45 97.98-28.37L97.98-28.37 97.98-28.3 104.03-28.3Q105.93-28.3 105.93-26.44L105.93-26.44Q105.93-24.54 104.03-24.54ZM76.75-19.76L76.75-19.76 83.74-19.76 83.74-20.07Q83.74-22.15 85.82-22.15 87.89-22.15 87.89-20.07L87.89-20.07 87.89-11.46Q87.89-9.18 87.63-7.44 87.36-5.7 86.64-3.87 85.92-2.04 84.45-0.54 82.97 0.95 80.72 2.07L80.72 2.07Q77.98 3.2 76.96 1.79L76.96 1.79Q75.55-0.18 78.61-1.55L78.61-1.55Q80.72-2.71 81.77-4.18L81.77-4.18Q77.84-3.55 76.04-3.27L76.04-3.27Q74.18-3.02 73.93-4.99L73.93-4.99Q73.79-6.05 74.11-6.56 74.43-7.07 75.38-7.17L75.38-7.17Q77.2-7.35 83.5-8.12L83.5-8.12Q83.64-9.04 83.71-10.16L83.71-10.16 77.66-10.16Q75.87-10.16 75.87-11.95 75.87-13.75 77.66-13.75L77.66-13.75 83.74-13.75 83.74-16.14 76.75-16.14Q74.95-16.14 74.95-17.96L74.95-17.96Q74.95-19.76 76.75-19.76ZM96.19-10.02L96.19-7.28 104.31-7.28Q106.21-7.28 106.21-5.38L106.21-5.38Q106.21-3.45 104.31-3.45L104.31-3.45 96.19-3.45 96.19 1.05Q96.19 3.13 94.11 3.13L94.11 3.13Q91.97 3.13 91.97 1.05L91.97 1.05 91.97-20.04Q91.97-22.15 94.11-22.15L94.11-22.15Q96.19-22.15 96.19-20.04L96.19-20.04 96.19-19.76 103.61-19.76Q105.4-19.76 105.4-17.96L105.4-17.96Q105.4-16.14 103.61-16.14L103.61-16.14 96.19-16.14 96.19-13.61 102.66-13.61Q104.48-13.61 104.48-11.81 104.48-10.02 102.66-10.02L102.66-10.02 96.19-10.02ZM129.87-20.88L129.87-22.78 121.99-22.78 121.99-20.85Q121.99-18.77 119.92-18.77L119.92-18.77Q117.81-18.77 117.81-20.85L117.81-20.85 117.81-22.78 112.36-22.78Q110.32-22.78 110.32-24.89L110.32-24.89Q110.32-26.93 112.36-26.93L112.36-26.93 117.81-26.93 117.81-28.37Q117.81-30.45 119.92-30.45L119.92-30.45Q121.99-30.45 121.99-28.37L121.99-28.37 121.99-26.93 129.87-26.93 129.87-28.34Q129.87-30.45 131.98-30.45 134.09-30.45 134.09-28.34L134.09-28.34 134.09-26.93 139.68-26.93Q141.71-26.93 141.71-24.89L141.71-24.89Q141.71-22.78 139.68-22.78L139.68-22.78 134.09-22.78 134.09-20.88Q134.09-18.77 131.98-18.77 129.87-18.77 129.87-20.88L129.87-20.88ZM125.86-2.14L125.86-2.14Q121.01 0.95 113.84 2.6L113.84 2.6Q111.69 3.06 110.78 1.41L110.78 1.41Q109.34-1.05 112.71-1.65L112.71-1.65Q118.44-2.92 122.34-4.99L122.34-4.99Q118.48-8.86 116.09-14.8L116.09-14.8Q115.28-16.95 117.28-17.47L117.28-17.47Q119.14-17.96 119.85-16.07L119.85-16.07Q121.99-10.83 125.96-7.42L125.96-7.42Q129.83-10.62 131.98-15.86L131.98-15.86Q132.71-18.18 134.89-17.65L134.89-17.65Q137.21-17.09 136.27-14.55L136.27-14.55Q133.88-8.86 129.59-4.96L129.59-4.96Q133.56-2.78 138.69-1.76L138.69-1.76Q142.35-1.16 140.7 1.37L140.7 1.37Q139.82 2.85 137.57 2.46L137.57 2.46Q130.57 0.98 125.86-2.14ZM174.9-19.76L174.9-19.76 160.17-19.76Q159.12-19.76 158.47-20.41 157.82-21.06 157.82-22.11L157.82-22.11 157.82-27.04Q157.82-28.93 159.71-28.93L159.71-28.93Q161.65-28.93 161.65-27.04L161.65-27.04 161.65-24.36Q161.65-23.52 162.49-23.52L162.49-23.52 165.38-23.52 165.38-28.51Q165.38-30.45 167.38-30.45L167.38-30.45Q169.31-30.45 169.31-28.51L169.31-28.51 169.31-23.52 172.37-23.52Q173.21-23.52 173.21-24.36L173.21-24.36 173.21-26.96Q173.21-28.93 175.25-28.93L175.25-28.93Q177.22-28.93 177.22-26.96L177.22-26.96 177.22-22.11Q177.22-21.06 176.59-20.41 175.96-19.76 174.9-19.76ZM147.62-28.44L147.62-28.44 154.16-28.44Q156.13-28.44 156.13-26.47L156.13-26.47Q156.13-24.43 154.16-24.43L154.16-24.43 152.82-24.43 152.82-18.11 153.42-18.11Q155.39-18.11 155.39-16.17L155.39-16.17Q155.39-14.17 153.42-14.17L153.42-14.17 152.82-14.17 152.82-6.36 153.95-6.64Q155.95-7.17 156.23-5.1L156.23-5.1Q156.45-3.34 154.76-2.85L154.76-2.85Q153.74-2.57 151.52-1.93 149.31-1.3 148.22-1.02L148.22-1.02Q146.18-0.46 145.83-2.57L145.83-2.57Q145.48-4.5 147.34-4.96L147.34-4.96Q147.62-5.03 148.18-5.19 148.75-5.34 148.96-5.38L148.96-5.38 148.96-14.17 147.87-14.17Q145.9-14.17 145.9-16.17L145.9-16.17Q145.9-18.11 147.87-18.11L147.87-18.11 148.96-18.11 148.96-24.43 147.62-24.43Q145.65-24.43 145.65-26.47L145.65-26.47Q145.65-28.44 147.62-28.44ZM158.41-17.93L158.41-17.93 176.48-17.93Q178.38-17.93 178.38-16.03L178.38-16.03Q178.38-14.06 176.48-14.06L176.48-14.06 169.31-14.06Q169.14-13.57 168.86-12.76 168.57-11.95 168.5-11.78L168.5-11.78 175.64-11.78Q176.7-11.78 177.35-11.13 178-10.48 178-9.42L178-9.42 178-0.81Q178 1.65 176.8 2.46L176.8 2.46Q176.31 2.85 175.39 3.09L175.39 3.09Q174.48 3.16 173.71 2.67 172.93 2.18 172.62 1.3L172.62 1.3Q172.3 0.49 172.6-0.02 172.9-0.53 173.78-0.49L173.78-0.49Q174.16-0.53 174.16-0.91L174.16-0.91 174.16-7.31Q174.16-8.16 173.32-8.16L173.32-8.16 171.98-8.16 171.98 1.13Q171.98 2.81 170.3 2.81L170.3 2.81Q168.57 2.81 168.57 1.13L168.57 1.13 168.57-8.16 166.54-8.16 166.54 1.13Q166.54 2.81 164.85 2.81 163.16 2.81 163.16 1.13L163.16 1.13 163.16-8.16 162-8.16Q161.12-8.16 161.12-7.31L161.12-7.31 161.12 1.23Q161.12 3.13 159.22 3.13 157.32 3.13 157.32 1.23L157.32 1.23 157.32-9.42Q157.32-10.48 157.96-11.13 158.59-11.78 159.64-11.78L159.64-11.78 164.67-11.78Q164.71-12.02 164.87-12.81 165.02-13.61 165.09-14.06L165.09-14.06 158.41-14.06Q156.48-14.06 156.48-16.03L156.48-16.03Q156.48-17.93 158.41-17.93Z" transform="translate(-2.2100000381469727, 30.479999542236328)"></path></g> <!----> <!----> <!----> <!----> <!----> <!----> <!----></g></g> <g data-gra="path-slogan" fill-rule="" class="tp-slogan iconsvg-slogansvg" fill="#333" transform="translate(5,39.61000061035156)"><rect x="0" height="1" y="3.9750003814697266" width="27.93499755859375"></rect> <rect height="1" y="3.9750003814697266" width="27.93499755859375" x="138.23500061035156"></rect> <g transform="translate(30.93499755859375,0)"><g transform="scale(1)"><path d="M2.30-8.58L6.61-1.64L6.61-8.58L7.73-8.58L7.73 0L6.42 0L2.06-6.94L2.02-6.94L2.02 0L0.89 0L0.89-8.58L2.30-8.58ZM15.19 0L14.34-2.48L10.88-2.48L9.98 0L8.81 0L12.05-8.58L13.36-8.58L16.45 0L15.19 0ZM12.61-7.31L11.25-3.52L13.92-3.52L12.66-7.31L12.61-7.31ZM18.89-8.58L23.20-1.64L23.20-8.58L24.33-8.58L24.33 0L23.02 0L18.66-6.94L18.61-6.94L18.61 0L17.48 0L17.48-8.58L18.89-8.58ZM25.41-1.92L25.41-2.77L26.48-2.77L26.48-2.16Q26.48-0.75 27.80-0.75L27.80-0.75Q29.16-0.75 29.16-2.25L29.16-2.25L29.16-8.58L30.33-8.58L30.33-2.30Q30.28 0.09 27.84 0.14L27.84 0.14Q25.55 0.09 25.41-1.92L25.41-1.92ZM32.30-8.58L33.47-8.58L33.47 0L32.30 0L32.30-8.58ZM36.84-8.58L41.16-1.64L41.16-8.58L42.28-8.58L42.28 0L40.97 0L36.61-6.94L36.56-6.94L36.56 0L35.44 0L35.44-8.58L36.84-8.58ZM50.48-3.61L47.86-3.61L47.86-4.59L51.61-4.59L51.61 0L50.86 0L50.58-1.08Q49.59 0.09 47.77 0.14L47.77 0.14Q46.03 0.14 45.09-0.75L45.09-0.75Q43.69-2.06 43.73-4.36L43.73-4.36Q44.06-8.63 47.81-8.81L47.81-8.81Q51-8.63 51.47-6L51.47-6L50.34-6Q49.88-7.78 47.77-7.83L47.77-7.83Q45.09-7.64 44.95-4.31L44.95-4.31Q44.95-0.75 47.81-0.75L47.81-0.75Q48.84-0.75 49.59-1.31L49.59-1.31Q50.53-2.06 50.48-3.61L50.48-3.61ZM62.25-3.89L58.03-3.89L58.03 0L56.86 0L56.86-8.58L62.81-8.58L62.81-7.59L58.03-7.59L58.03-4.92L62.25-4.92L62.25-3.89ZM65.30-1.03L70.45-1.03L70.45 0L64.13 0L64.13-8.58L70.36-8.58L70.36-7.59L65.30-7.59L65.30-4.92L69.98-4.92L69.98-3.89L65.30-3.89L65.30-1.03ZM72.14-8.58L73.31-8.58L73.31 0L72.14 0L72.14-8.58ZM80.95 0L80.11-2.48L76.64-2.48L75.75 0L74.58 0L77.81-8.58L79.13-8.58L82.22 0L80.95 0ZM78.38-7.31L77.02-3.52L79.69-3.52L78.42-7.31L78.38-7.31ZM83.44-8.58L84.61-8.58L84.61 0L83.44 0L83.44-8.58ZM90.70-3.70L87.89-3.70L87.89 0L86.72 0L86.72-8.58L90.70-8.58Q93.56-8.58 93.56-6.28L93.56-6.28Q93.56-4.88 92.34-4.22L92.34-4.22Q93.38-3.94 93.38-2.58L93.38-2.58L93.47-1.03Q93.42-0.38 93.89-0.19L93.89-0.19L93.89 0L92.44 0Q92.30-0.61 92.25-2.16L92.25-2.16Q92.30-3.70 90.70-3.70L90.70-3.70ZM90.80-7.64L87.89-7.64L87.89-4.69L90.61-4.69Q92.34-4.69 92.34-6.19L92.34-6.19Q92.34-7.64 90.80-7.64L90.80-7.64ZM100.88-3.19L100.88-8.58L102.05-8.58L102.05-3.05Q101.91 0.05 98.53 0.14L98.53 0.14Q95.39 0.05 95.25-2.86L95.25-2.86L95.25-8.58L96.42-8.58L96.42-3.19Q96.47-0.84 98.58-0.80L98.58-0.80Q100.88-0.84 100.88-3.19L100.88-3.19ZM104.02-8.58L105.19-8.58L105.19 0L104.02 0L104.02-8.58Z" transform="translate(-0.890625, 8.8125)"></path></g></g></g></g></g><defs v-gra="od"></defs></svg>